<svg width="343" height="99" fill="none" xmlns="http://www.w3.org/2000/svg"><g clip-path="url(#clip0)"><path fill="#fff" d="M0 0h343v99H0z"/><path d="M1.568 93V5.727h10.568v43.296h1.023L52.364 5.727H66.17L29.523 45.102 66.17 93H53.386l-30.34-40.568-10.91 12.272V93H1.568zM276.568 93V5.727h29.489c6.846 0 12.443 1.236 16.79 3.708 4.375 2.443 7.613 5.752 9.715 9.929 2.103 4.176 3.154 8.835 3.154 13.977 0 5.142-1.051 9.815-3.154 14.02-2.073 4.204-5.284 7.557-9.63 10.057-4.347 2.471-9.915 3.707-16.705 3.707h-19.091V93h-10.568zm10.568-41.25h18.75c7.017 0 12.003-1.761 14.958-5.284 2.983-3.523 4.474-7.898 4.474-13.125 0-5.256-1.491-9.602-4.474-13.04-2.983-3.466-8.026-5.199-15.128-5.199h-18.58V51.75z" fill="#000"/><path d="M72.5 73C93 137.5 86.8-7.652 106 7.148c19.2 14.8 23.333 67.5 23 92 .667-24.667 7.7-73.7 30.5-72.5 21.904 1.153 48.33 34.89 20.67 46.98-1.803.789-3.766-.552-3.854-2.518-1.747-39.313-.161-84.017 34.684-46.462 36 38.8 48 66.704 23 65.352-30.5-1.648 13.4-44.752 37-44.352M92.5 39c16 21.5 15.5-17.5 29.5-1.5" stroke="#000" stroke-width="8"/></g><defs><clipPath id="clip0"><path fill="#fff" d="M0 0h343v99H0z"/></clipPath></defs></svg>